<mxfile host="app.diagrams.net" modified="2023-08-26T09:47:55.644Z" agent="Mozilla/5.0 (Windows NT 10.0; Win64; x64) AppleWebKit/537.36 (KHTML, like Gecko) Chrome/116.0.0.0 Safari/537.36" etag="_fMqxfjewfpOfEGRvp5g" version="21.6.8" type="device">
  <diagram id="SWg9KB9dNT7n6RGxmDI8" name="Page-1">
    <mxGraphModel dx="1244" dy="1166" grid="1" gridSize="10" guides="1" tooltips="1" connect="1" arrows="1" fold="1" page="1" pageScale="1" pageWidth="850" pageHeight="1100" math="0" shadow="0">
      <root>
        <mxCell id="0" />
        <mxCell id="1" parent="0" />
        <mxCell id="4mjPrOI8YxpS2KgesUWJ-69" style="edgeStyle=orthogonalEdgeStyle;rounded=0;orthogonalLoop=1;jettySize=auto;html=1;" edge="1" parent="1" source="4mjPrOI8YxpS2KgesUWJ-14" target="4mjPrOI8YxpS2KgesUWJ-54">
          <mxGeometry relative="1" as="geometry" />
        </mxCell>
        <mxCell id="4mjPrOI8YxpS2KgesUWJ-70" value="Get list of messages" style="edgeLabel;html=1;align=center;verticalAlign=middle;resizable=0;points=[];" vertex="1" connectable="0" parent="4mjPrOI8YxpS2KgesUWJ-69">
          <mxGeometry x="-0.1556" y="-2" relative="1" as="geometry">
            <mxPoint x="2" y="-12" as="offset" />
          </mxGeometry>
        </mxCell>
        <mxCell id="4mjPrOI8YxpS2KgesUWJ-71" style="edgeStyle=orthogonalEdgeStyle;rounded=0;orthogonalLoop=1;jettySize=auto;html=1;" edge="1" parent="1" source="4mjPrOI8YxpS2KgesUWJ-14" target="4mjPrOI8YxpS2KgesUWJ-48">
          <mxGeometry relative="1" as="geometry">
            <Array as="points">
              <mxPoint x="100" y="360" />
            </Array>
          </mxGeometry>
        </mxCell>
        <mxCell id="4mjPrOI8YxpS2KgesUWJ-72" value="Establish connection" style="edgeLabel;html=1;align=center;verticalAlign=middle;resizable=0;points=[];" vertex="1" connectable="0" parent="4mjPrOI8YxpS2KgesUWJ-71">
          <mxGeometry x="-0.4538" y="-3" relative="1" as="geometry">
            <mxPoint as="offset" />
          </mxGeometry>
        </mxCell>
        <mxCell id="4mjPrOI8YxpS2KgesUWJ-14" value="" style="shape=actor;whiteSpace=wrap;html=1;" vertex="1" parent="1">
          <mxGeometry x="80" y="170" width="40" height="60" as="geometry" />
        </mxCell>
        <mxCell id="4mjPrOI8YxpS2KgesUWJ-39" style="edgeStyle=orthogonalEdgeStyle;rounded=0;orthogonalLoop=1;jettySize=auto;html=1;entryX=0;entryY=0.5;entryDx=0;entryDy=0;entryPerimeter=0;" edge="1" parent="1" target="4mjPrOI8YxpS2KgesUWJ-38">
          <mxGeometry relative="1" as="geometry">
            <mxPoint x="590" y="200" as="sourcePoint" />
          </mxGeometry>
        </mxCell>
        <mxCell id="4mjPrOI8YxpS2KgesUWJ-44" style="edgeStyle=orthogonalEdgeStyle;rounded=0;orthogonalLoop=1;jettySize=auto;html=1;entryX=0.5;entryY=1;entryDx=0;entryDy=0;entryPerimeter=0;" edge="1" parent="1" source="4mjPrOI8YxpS2KgesUWJ-35">
          <mxGeometry relative="1" as="geometry">
            <mxPoint x="530" y="80" as="targetPoint" />
          </mxGeometry>
        </mxCell>
        <mxCell id="4mjPrOI8YxpS2KgesUWJ-48" value="Messaging service" style="whiteSpace=wrap;html=1;" vertex="1" parent="1">
          <mxGeometry x="230" y="330" width="120" height="60" as="geometry" />
        </mxCell>
        <mxCell id="4mjPrOI8YxpS2KgesUWJ-52" style="edgeStyle=orthogonalEdgeStyle;rounded=0;orthogonalLoop=1;jettySize=auto;html=1;entryX=0;entryY=0.5;entryDx=0;entryDy=0;entryPerimeter=0;" edge="1" parent="1" source="4mjPrOI8YxpS2KgesUWJ-50" target="4mjPrOI8YxpS2KgesUWJ-51">
          <mxGeometry relative="1" as="geometry" />
        </mxCell>
        <mxCell id="4mjPrOI8YxpS2KgesUWJ-50" value="Group and Channel service" style="whiteSpace=wrap;html=1;" vertex="1" parent="1">
          <mxGeometry x="230" y="490" width="120" height="60" as="geometry" />
        </mxCell>
        <mxCell id="4mjPrOI8YxpS2KgesUWJ-51" value="" style="shape=cylinder3;whiteSpace=wrap;html=1;boundedLbl=1;backgroundOutline=1;size=15;" vertex="1" parent="1">
          <mxGeometry x="450" y="480" width="60" height="80" as="geometry" />
        </mxCell>
        <mxCell id="4mjPrOI8YxpS2KgesUWJ-53" value="SQL/No SQL database" style="text;html=1;align=center;verticalAlign=middle;resizable=0;points=[];autosize=1;strokeColor=none;fillColor=none;" vertex="1" parent="1">
          <mxGeometry x="405" y="568" width="150" height="30" as="geometry" />
        </mxCell>
        <mxCell id="4mjPrOI8YxpS2KgesUWJ-57" style="edgeStyle=orthogonalEdgeStyle;rounded=0;orthogonalLoop=1;jettySize=auto;html=1;entryX=0;entryY=0.5;entryDx=0;entryDy=0;entryPerimeter=0;" edge="1" parent="1" source="4mjPrOI8YxpS2KgesUWJ-54" target="4mjPrOI8YxpS2KgesUWJ-55">
          <mxGeometry relative="1" as="geometry" />
        </mxCell>
        <mxCell id="4mjPrOI8YxpS2KgesUWJ-54" value="Chat history service" style="whiteSpace=wrap;html=1;" vertex="1" parent="1">
          <mxGeometry x="470" y="330" width="120" height="60" as="geometry" />
        </mxCell>
        <mxCell id="4mjPrOI8YxpS2KgesUWJ-55" value="" style="shape=cylinder3;whiteSpace=wrap;html=1;boundedLbl=1;backgroundOutline=1;size=15;" vertex="1" parent="1">
          <mxGeometry x="640" y="320" width="60" height="80" as="geometry" />
        </mxCell>
        <mxCell id="4mjPrOI8YxpS2KgesUWJ-56" value="No SQL database" style="text;html=1;align=center;verticalAlign=middle;resizable=0;points=[];autosize=1;strokeColor=none;fillColor=none;" vertex="1" parent="1">
          <mxGeometry x="610" y="408" width="120" height="30" as="geometry" />
        </mxCell>
      </root>
    </mxGraphModel>
  </diagram>
</mxfile>
